<svg width="29" height="25" viewBox="0 0 29 25" fill="none" xmlns="http://www.w3.org/2000/svg">
<g clip-path="url(#clip0_1_14)">
<path d="M28.1231 10.5468V11.328C28.1231 11.9752 27.5985 12.4999 26.9514 12.4999H26.5608L25.2859 21.4251C25.121 22.5797 24.1323 23.4374 22.9661 23.4374H5.15877C3.99256 23.4374 3.00382 22.5797 2.83885 21.4251L1.56401 12.4999H1.17344C0.526301 12.4999 0.00170898 11.9752 0.00170898 11.328V10.5468C0.00170898 9.89955 0.526301 9.37489 1.17344 9.37489H4.46115L9.67436 2.2059C10.1819 1.50805 11.1589 1.3537 11.8567 1.86127C12.5546 2.36884 12.7088 3.34604 12.2013 4.04394L8.32472 9.37489H19.8001L15.9235 4.04389C15.416 3.34604 15.5703 2.36879 16.2681 1.86122C16.9659 1.35365 17.943 1.50795 18.4505 2.20585L23.6637 9.37489H26.9514C27.5985 9.37489 28.1231 9.89955 28.1231 10.5468ZM15.2341 19.1405V13.6718C15.2341 13.0246 14.7096 12.4999 14.0624 12.4999C13.4153 12.4999 12.8907 13.0246 12.8907 13.6718V19.1405C12.8907 19.7877 13.4153 20.3124 14.0624 20.3124C14.7096 20.3124 15.2341 19.7877 15.2341 19.1405ZM20.7022 19.1405V13.6718C20.7022 13.0246 20.1776 12.4999 19.5305 12.4999C18.8833 12.4999 18.3588 13.0246 18.3588 13.6718V19.1405C18.3588 19.7877 18.8833 20.3124 19.5305 20.3124C20.1776 20.3124 20.7022 19.7877 20.7022 19.1405ZM9.76609 19.1405V13.6718C9.76609 13.0246 9.2415 12.4999 8.59437 12.4999C7.94723 12.4999 7.42264 13.0246 7.42264 13.6718V19.1405C7.42264 19.7877 7.94723 20.3124 8.59437 20.3124C9.2415 20.3124 9.76609 19.7877 9.76609 19.1405Z" fill="#EEEEEE"/>
</g>
<defs>
<clipPath id="clip0_1_14">
<rect width="28.125" height="25" fill="white"/>
</clipPath>
</defs>
</svg>
