<svg width="23" height="23" viewBox="0 0 23 23" fill="none" xmlns="http://www.w3.org/2000/svg">
<g clip-path="url(#clip0_15_497)" filter="url(#filter0_i_15_497)">
<path d="M22.8999 4.73003C22.1721 5.04354 21.4069 5.26185 20.6234 5.37956C20.9897 5.3167 21.5288 4.6567 21.7433 4.38955C22.0693 3.98659 22.3177 3.52658 22.476 3.03288C22.476 2.99621 22.5127 2.94383 22.476 2.91764C22.4576 2.90755 22.4369 2.90227 22.4158 2.90227C22.3948 2.90227 22.3741 2.90755 22.3556 2.91764C21.5048 3.37881 20.5992 3.7308 19.6604 3.96527C19.6277 3.97527 19.5929 3.97617 19.5597 3.96786C19.5265 3.95956 19.4962 3.94236 19.472 3.91812C19.3989 3.83103 19.3203 3.74879 19.2365 3.67193C18.8536 3.32854 18.4191 3.0475 17.9491 2.83907C17.3145 2.57851 16.6291 2.46567 15.9446 2.50906C15.2805 2.55105 14.632 2.72935 14.0396 3.03288C13.4563 3.35289 12.9436 3.78763 12.5324 4.31098C12.0998 4.84965 11.7876 5.47478 11.6165 6.14433C11.4755 6.78121 11.4595 7.43945 11.5694 8.08244C11.5694 8.19244 11.5694 8.20816 11.4752 8.19244C7.74376 7.64244 4.68217 6.31719 2.18056 3.47288C2.07066 3.34717 2.01309 3.34717 1.92412 3.47288C0.835557 5.12813 1.36414 7.7472 2.72485 9.04102C2.90802 9.21388 3.09642 9.3815 3.2953 9.53864C2.67142 9.49431 2.06278 9.3251 1.50544 9.04102C1.40077 8.97292 1.34321 9.00959 1.33797 9.13531C1.32314 9.3096 1.32314 9.48483 1.33797 9.65912C1.44717 10.4944 1.77606 11.2856 2.29099 11.952C2.80592 12.6183 3.48843 13.1358 4.26872 13.4515C4.45894 13.5331 4.65714 13.5945 4.86011 13.6349C4.28255 13.7487 3.6902 13.7664 3.10689 13.6872C2.98129 13.6611 2.93418 13.7292 2.98129 13.8496C3.75061 15.9449 5.42009 16.5839 6.64473 16.9401C6.8122 16.9663 6.97967 16.9663 7.16807 17.0082C7.16807 17.0082 7.16807 17.0082 7.13667 17.0397C6.77556 17.6997 5.31542 18.1449 4.64553 18.3754C3.42282 18.815 2.11918 18.983 0.82509 18.8678C0.620985 18.8363 0.573883 18.8416 0.521548 18.8678C0.469213 18.894 0.521548 18.9516 0.579117 19.004C0.840791 19.1768 1.10247 19.3287 1.37461 19.4754C2.18477 19.9177 3.04128 20.269 3.92855 20.523C8.52355 21.7906 13.6942 20.8583 17.1431 17.4273C19.854 14.7349 20.8065 11.021 20.8065 7.30196C20.8065 7.16053 20.9792 7.07672 21.0787 7.00338C21.7645 6.46851 22.3692 5.83685 22.8738 5.12813C22.9611 5.02249 23.0059 4.88798 22.9994 4.75099C22.9994 4.67241 22.9994 4.68813 22.8999 4.73003Z" fill="white"/>
</g>
<defs>
<filter id="filter0_i_15_497" x="0.5" y="0.5" width="22.5" height="22.931" filterUnits="userSpaceOnUse" color-interpolation-filters="sRGB">
<feFlood flood-opacity="0" result="BackgroundImageFix"/>
<feBlend mode="normal" in="SourceGraphic" in2="BackgroundImageFix" result="shape"/>
<feColorMatrix in="SourceAlpha" type="matrix" values="0 0 0 0 0 0 0 0 0 0 0 0 0 0 0 0 0 0 127 0" result="hardAlpha"/>
<feOffset dy="0.431035"/>
<feGaussianBlur stdDeviation="1.07759"/>
<feComposite in2="hardAlpha" operator="arithmetic" k2="-1" k3="1"/>
<feColorMatrix type="matrix" values="0 0 0 0 0 0 0 0 0 0 0 0 0 0 0 0 0 0 0.1 0"/>
<feBlend mode="normal" in2="shape" result="effect1_innerShadow_15_497"/>
</filter>
<clipPath id="clip0_15_497">
<rect width="22.5" height="22.5" fill="white" transform="translate(0.5 0.5)"/>
</clipPath>
</defs>
</svg>
