<svg width="199" height="79" viewBox="0 0 199 79" fill="none" xmlns="http://www.w3.org/2000/svg">
<g opacity="0.65" filter="url(#filter0_f_15_274)">
<circle cx="12.5" cy="12.5" r="12.5" transform="matrix(0.707107 0.707107 0.707107 -0.707107 9.94971 51.4143)" fill="#B0A1DE"/>
</g>
<line x1="1" y1="-1" x2="69.7107" y2="-1" transform="matrix(0.707107 -0.707107 -0.707107 -0.707107 26.9204 50)" stroke="url(#paint0_linear_15_274)" stroke-width="2" stroke-linecap="round"/>
<circle opacity="0.3" cx="16" cy="16" r="16" transform="matrix(0.707107 0.707107 0.707107 -0.707107 5 50.7072)" fill="#775EC5" fill-opacity="0.42"/>
<circle opacity="0.65" cx="12.5" cy="12.5" r="12.5" transform="matrix(0.707107 0.707107 0.707107 -0.707107 9.94971 51.4143)" fill="#5A4696" fill-opacity="0.51"/>
<circle cx="7" cy="7" r="7" transform="matrix(0.707107 0.707107 0.707107 -0.707107 17.021 51.4143)" fill="url(#paint1_radial_15_274)"/>
<line x1="1" y1="-1" x2="121" y2="-1" transform="matrix(1 -8.74228e-08 -8.74228e-08 -1 76.7854 0.15564)" stroke="url(#paint2_linear_15_274)" stroke-width="2" stroke-linecap="round"/>
<defs>
<filter id="filter0_f_15_274" x="0.127441" y="23.9143" width="55" height="55" filterUnits="userSpaceOnUse" color-interpolation-filters="sRGB">
<feFlood flood-opacity="0" result="BackgroundImageFix"/>
<feBlend mode="normal" in="SourceGraphic" in2="BackgroundImageFix" result="shape"/>
<feGaussianBlur stdDeviation="7.5" result="effect1_foregroundBlur_15_274"/>
</filter>
<linearGradient id="paint0_linear_15_274" x1="35.3553" y1="-4" x2="35.3553" y2="2" gradientUnits="userSpaceOnUse">
<stop offset="0.197917"/>
<stop offset="0.529011" stop-color="#B4A3E9"/>
<stop offset="0.848958" stop-color="#48377C"/>
</linearGradient>
<radialGradient id="paint1_radial_15_274" cx="0" cy="0" r="1" gradientUnits="userSpaceOnUse" gradientTransform="translate(2.8 2.8) rotate(69.444) scale(11.9616)">
<stop stop-color="#DBCFFE"/>
<stop offset="0.65625" stop-color="#58468F"/>
<stop offset="1" stop-color="#1F114A"/>
</radialGradient>
<linearGradient id="paint2_linear_15_274" x1="61" y1="-4" x2="61" y2="2" gradientUnits="userSpaceOnUse">
<stop offset="0.197917"/>
<stop offset="0.529011" stop-color="#B4A3E9"/>
<stop offset="0.848958" stop-color="#48377C"/>
</linearGradient>
</defs>
</svg>
