<svg width="50" height="51" viewBox="0 0 50 51" fill="none" xmlns="http://www.w3.org/2000/svg">
<g opacity="0.25" filter="url(#filter0_f_15_499)">
<rect x="7.53271" y="25" width="34.0611" height="21.2882" rx="10.6441" fill="url(#paint0_linear_15_499)"/>
</g>
<rect x="6.5" y="6.49994" width="36.8996" height="36.8996" rx="18.4498" fill="url(#paint1_linear_15_499)"/>
<g filter="url(#filter1_i_15_499)">
<path fill-rule="evenodd" clip-rule="evenodd" d="M29.1012 22.227C30.4388 23.1787 32.0406 23.6871 33.6816 23.681V20.4257C33.359 20.4266 33.0373 20.392 32.7222 20.3226V22.916C31.0774 22.9189 29.4733 22.4046 28.1363 21.4457V28.1407C28.1323 29.2393 27.8313 30.3163 27.2652 31.2575C26.6992 32.1988 25.8892 32.9692 24.9212 33.487C23.9531 34.0048 22.8631 34.2508 21.7667 34.1988C20.6703 34.1468 19.6084 33.7989 18.6936 33.1918C19.5398 34.0487 20.621 34.635 21.8003 34.8765C22.9797 35.118 24.2041 35.0038 25.3185 34.5483C26.4329 34.0928 27.3872 33.3166 28.0606 32.3179C28.734 31.3193 29.0962 30.1431 29.1012 28.9382V22.227ZM30.2883 18.9066C29.6081 18.1687 29.1908 17.2264 29.1012 16.2264V15.8032H28.1905C28.3031 16.4389 28.5481 17.0437 28.9095 17.5783C29.2709 18.113 29.7407 18.5656 30.2883 18.9066V18.9066ZM20.8022 30.6147C20.4866 30.2016 20.2932 29.7081 20.244 29.1904C20.1947 28.6726 20.2917 28.1515 20.5239 27.6862C20.756 27.2209 21.114 26.8302 21.5571 26.5586C22.0002 26.2869 22.5105 26.1452 23.0301 26.1496C23.317 26.1495 23.6022 26.1934 23.8757 26.2798V22.916C23.5559 22.8736 23.2334 22.8555 22.9109 22.8617V25.4768C22.2447 25.266 21.5237 25.314 20.8913 25.611C20.2589 25.9081 19.7613 26.4326 19.4976 27.0801C19.2339 27.7276 19.2234 28.4507 19.4682 29.1057C19.7129 29.7606 20.195 30.2993 20.8185 30.6147H20.8022Z" fill="#EE1D52"/>
<path fill-rule="evenodd" clip-rule="evenodd" d="M28.1358 21.424C29.4728 22.3829 31.0769 22.8972 32.7217 22.8943V20.3009C31.7846 20.1026 30.9333 19.6149 30.2878 18.9066C29.7402 18.5656 29.2704 18.113 28.909 17.5783C28.5476 17.0437 28.3026 16.4389 28.19 15.8032H25.7941V28.9382C25.7919 29.5196 25.6078 30.0857 25.2677 30.5571C24.9276 31.0284 24.4486 31.3813 23.8979 31.5663C23.3472 31.7512 22.7524 31.7589 22.1971 31.5882C21.6418 31.4175 21.1538 31.0771 20.8017 30.6147C20.2437 30.3329 19.7968 29.8711 19.5331 29.3039C19.2695 28.7367 19.2044 28.0971 19.3485 27.4883C19.4925 26.8796 19.8373 26.3371 20.3272 25.9486C20.817 25.56 21.4234 25.3479 22.0485 25.3466C22.3353 25.3475 22.6203 25.3914 22.8941 25.4768V22.8617C21.7111 22.8902 20.5621 23.2637 19.5882 23.9365C18.6143 24.6092 17.8579 25.552 17.4118 26.649C16.9656 27.746 16.8492 28.9495 17.0769 30.1118C17.3045 31.2741 17.8662 32.3445 18.6931 33.1918C19.6081 33.8032 20.6717 34.1548 21.7705 34.209C22.8694 34.2633 23.9624 34.0182 24.933 33.4998C25.9037 32.9815 26.7158 32.2093 27.2826 31.2656C27.8495 30.3218 28.15 29.2419 28.1521 28.1407L28.1358 21.424Z" fill="white"/>
<path fill-rule="evenodd" clip-rule="evenodd" d="M32.7221 20.3007V19.6008C31.8615 19.6044 31.0175 19.3636 30.2882 18.9063C30.932 19.6167 31.784 20.1048 32.7221 20.3007V20.3007ZM28.1904 15.803C28.1904 15.6782 28.1525 15.548 28.1362 15.4232V15H24.8297V28.1404C24.8268 28.8762 24.5324 29.5808 24.011 30.0996C23.4897 30.6183 22.784 30.9089 22.0489 30.9074C21.616 30.9096 21.1888 30.8092 20.8021 30.6144C21.1542 31.0768 21.6422 31.4173 22.1975 31.5879C22.7528 31.7586 23.3476 31.7509 23.8983 31.566C24.449 31.3811 24.928 31.0282 25.2681 30.5568C25.6082 30.0855 25.7923 29.5194 25.7945 28.938V15.803H28.1904ZM22.8945 22.856V22.1128C21.5339 21.9278 20.1507 22.2095 18.9705 22.912C17.7903 23.6145 16.8826 24.6963 16.3954 25.9813C15.9082 27.2662 15.8701 28.6784 16.2874 29.9878C16.7048 31.2971 17.5529 32.4264 18.6935 33.1915C17.8729 32.3423 17.3171 31.2723 17.0942 30.1121C16.8712 28.9519 16.9906 27.7519 17.4379 26.6586C17.8852 25.5652 18.641 24.626 19.6129 23.9555C20.5848 23.2851 21.7307 22.9124 22.9108 22.8832L22.8945 22.856Z" fill="#69C9D0"/>
</g>
<defs>
<filter id="filter0_f_15_499" x="2.82582" y="20.2931" width="43.4748" height="30.702" filterUnits="userSpaceOnUse" color-interpolation-filters="sRGB">
<feFlood flood-opacity="0" result="BackgroundImageFix"/>
<feBlend mode="normal" in="SourceGraphic" in2="BackgroundImageFix" result="shape"/>
<feGaussianBlur stdDeviation="2.35345" result="effect1_foregroundBlur_15_499"/>
</filter>
<filter id="filter1_i_15_499" x="13.5" y="13.5" width="22.5" height="22.931" filterUnits="userSpaceOnUse" color-interpolation-filters="sRGB">
<feFlood flood-opacity="0" result="BackgroundImageFix"/>
<feBlend mode="normal" in="SourceGraphic" in2="BackgroundImageFix" result="shape"/>
<feColorMatrix in="SourceAlpha" type="matrix" values="0 0 0 0 0 0 0 0 0 0 0 0 0 0 0 0 0 0 127 0" result="hardAlpha"/>
<feOffset dy="0.431035"/>
<feGaussianBlur stdDeviation="1.07759"/>
<feComposite in2="hardAlpha" operator="arithmetic" k2="-1" k3="1"/>
<feColorMatrix type="matrix" values="0 0 0 0 0 0 0 0 0 0 0 0 0 0 0 0 0 0 0.1 0"/>
<feBlend mode="normal" in2="shape" result="effect1_innerShadow_15_499"/>
</filter>
<linearGradient id="paint0_linear_15_499" x1="8.22502" y1="25" x2="23.2362" y2="55.0697" gradientUnits="userSpaceOnUse">
<stop/>
<stop offset="1" stop-color="#323232"/>
</linearGradient>
<linearGradient id="paint1_linear_15_499" x1="7.25" y1="6.49994" x2="39" y2="46.2499" gradientUnits="userSpaceOnUse">
<stop/>
<stop offset="1" stop-color="#323232"/>
</linearGradient>
</defs>
</svg>
