<svg width="50" height="51" viewBox="0 0 50 51" fill="none" xmlns="http://www.w3.org/2000/svg">
<g opacity="0.25" filter="url(#filter0_f_15_484)">
<rect x="7.53271" y="25" width="34.0611" height="21.2882" rx="10.6441" fill="url(#paint0_linear_15_484)"/>
</g>
<rect x="6.5" y="6.49994" width="36.8996" height="36.8996" rx="18.4498" fill="url(#paint1_linear_15_484)"/>
<g clip-path="url(#clip0_15_484)" filter="url(#filter1_i_15_484)">
<g filter="url(#filter2_i_15_484)">
<path d="M32.1138 35.4102C33.6261 34.8258 34.8217 33.6302 35.406 32.1179C35.6826 31.4015 35.8762 30.5842 35.9288 29.3886C35.9412 29.1085 35.9509 28.8734 35.9599 28.6376V20.6494C35.9537 20.4828 35.9468 20.3092 35.9378 20.1142C35.8852 18.9186 35.6916 18.0971 35.415 17.3848C35.1294 16.629 34.6896 15.9521 34.1143 15.3899C33.5514 14.818 32.8703 14.3741 32.1228 14.0933C31.4064 13.8167 30.589 13.6231 29.3934 13.5705C28.1888 13.5131 27.8064 13.5 24.7521 13.5C21.6977 13.5 21.3146 13.5131 20.1149 13.5657C18.9193 13.6182 18.0978 13.8119 17.3855 14.0885C16.6297 14.3741 15.9527 14.8138 15.3899 15.3899C14.8187 15.9527 14.3747 16.6339 14.0933 17.3807C13.8167 18.0971 13.6231 18.9144 13.5705 20.11C13.5131 21.3146 13.5 21.697 13.5 24.7521C13.5 27.8071 13.5131 28.1895 13.5657 29.3893C13.6182 30.5849 13.8119 31.4071 14.0892 32.1186C14.3747 32.8744 14.8187 33.5514 15.3899 34.1143C15.9527 34.6855 16.6339 35.1301 17.3814 35.4108C18.0978 35.6874 18.9151 35.8811 20.1107 35.9336C21.3105 35.9869 21.6929 36 24.7479 36C27.803 36 28.1847 35.9869 29.3851 35.9336C30.5807 35.8811 31.4022 35.6874 32.1145 35.4108L32.1138 35.4102ZM24.7562 33.9774C21.7537 33.9774 21.3935 33.9642 20.211 33.9117C19.1122 33.8633 18.5189 33.6786 18.1234 33.5251C17.6359 33.3446 17.1919 33.0591 16.831 32.6856C16.4575 32.3205 16.1713 31.8814 15.9915 31.3932C15.838 30.9977 15.6533 30.3995 15.6049 29.3056C15.5524 28.119 15.5392 27.7629 15.5392 24.7604C15.5392 21.7579 15.5524 21.3976 15.6049 20.2158C15.6533 19.117 15.838 18.5237 15.9915 18.1282C16.172 17.64 16.4575 17.1961 16.8358 16.8358C17.2002 16.4624 17.64 16.1768 18.1275 15.9963C18.523 15.8428 19.1212 15.6582 20.2151 15.6098C21.4018 15.5572 21.7579 15.5441 24.7597 15.5441C27.7615 15.5441 28.1224 15.5572 29.3049 15.6098C30.4037 15.6582 30.997 15.8428 31.3925 15.9963C31.8801 16.1768 32.324 16.4624 32.6843 16.8358C33.0577 17.2009 33.344 17.64 33.5237 18.1282C33.6773 18.5237 33.8619 19.1212 33.9103 20.2158C33.9628 21.4025 33.976 21.7586 33.976 24.7604C33.976 27.7622 33.9628 28.1141 33.9103 29.3008C33.8619 30.3995 33.6773 30.9929 33.5237 31.3884C33.1455 32.3689 32.3676 33.1469 31.3877 33.5244C30.9922 33.6779 30.3947 33.8626 29.3001 33.911C28.1135 33.9635 27.7573 33.9767 24.7555 33.9767L24.7562 33.9774Z" fill="white"/>
<path d="M24.7522 18.9711C21.5609 18.9711 18.9719 21.56 18.9719 24.7513C18.9719 27.9426 21.5609 30.5315 24.7522 30.5315C27.9434 30.5315 30.5317 27.9426 30.5317 24.7513C30.5317 21.56 27.9427 18.9711 24.7522 18.9711V18.9711ZM24.7522 28.4999C22.6818 28.4999 21.0029 26.821 21.0029 24.7506C21.0029 22.6803 22.6818 21.0013 24.7522 21.0013C26.8225 21.0013 28.5015 22.6803 28.5015 24.7506C28.5015 26.821 26.8225 28.4999 24.7522 28.4999Z" fill="white"/>
<path d="M32.1096 18.7429C32.1096 17.9975 31.5052 17.3938 30.7598 17.3938C30.0143 17.3938 29.4106 17.9982 29.4106 18.7429C29.4106 19.4877 30.015 20.092 30.7598 20.092C31.5045 20.092 32.1096 19.4883 32.1096 18.7429Z" fill="white"/>
</g>
</g>
<defs>
<filter id="filter0_f_15_484" x="2.82582" y="20.2931" width="43.4748" height="30.702" filterUnits="userSpaceOnUse" color-interpolation-filters="sRGB">
<feFlood flood-opacity="0" result="BackgroundImageFix"/>
<feBlend mode="normal" in="SourceGraphic" in2="BackgroundImageFix" result="shape"/>
<feGaussianBlur stdDeviation="2.35345" result="effect1_foregroundBlur_15_484"/>
</filter>
<filter id="filter1_i_15_484" x="13.5" y="13.5" width="22.5" height="22.931" filterUnits="userSpaceOnUse" color-interpolation-filters="sRGB">
<feFlood flood-opacity="0" result="BackgroundImageFix"/>
<feBlend mode="normal" in="SourceGraphic" in2="BackgroundImageFix" result="shape"/>
<feColorMatrix in="SourceAlpha" type="matrix" values="0 0 0 0 0 0 0 0 0 0 0 0 0 0 0 0 0 0 127 0" result="hardAlpha"/>
<feOffset dy="0.431035"/>
<feGaussianBlur stdDeviation="1.07759"/>
<feComposite in2="hardAlpha" operator="arithmetic" k2="-1" k3="1"/>
<feColorMatrix type="matrix" values="0 0 0 0 0 0 0 0 0 0 0 0 0 0 0 0 0 0 0.2 0"/>
<feBlend mode="normal" in2="shape" result="effect1_innerShadow_15_484"/>
</filter>
<filter id="filter2_i_15_484" x="13.5" y="13.5" width="22.46" height="22.931" filterUnits="userSpaceOnUse" color-interpolation-filters="sRGB">
<feFlood flood-opacity="0" result="BackgroundImageFix"/>
<feBlend mode="normal" in="SourceGraphic" in2="BackgroundImageFix" result="shape"/>
<feColorMatrix in="SourceAlpha" type="matrix" values="0 0 0 0 0 0 0 0 0 0 0 0 0 0 0 0 0 0 127 0" result="hardAlpha"/>
<feOffset dy="0.431035"/>
<feGaussianBlur stdDeviation="1.07759"/>
<feComposite in2="hardAlpha" operator="arithmetic" k2="-1" k3="1"/>
<feColorMatrix type="matrix" values="0 0 0 0 0 0 0 0 0 0 0 0 0 0 0 0 0 0 0.1 0"/>
<feBlend mode="normal" in2="shape" result="effect1_innerShadow_15_484"/>
</filter>
<linearGradient id="paint0_linear_15_484" x1="24.5633" y1="24.3367" x2="24.5633" y2="47.4039" gradientUnits="userSpaceOnUse">
<stop stop-color="#FCA759"/>
<stop offset="0.19" stop-color="#E82D56"/>
<stop offset="0.74" stop-color="#A22DB4"/>
<stop offset="1" stop-color="#643DCE"/>
</linearGradient>
<linearGradient id="paint1_linear_15_484" x1="24.9498" y1="5.35019" x2="24.9498" y2="45.3333" gradientUnits="userSpaceOnUse">
<stop stop-color="#FCA759"/>
<stop offset="0.19" stop-color="#E82D56"/>
<stop offset="0.74" stop-color="#A22DB4"/>
<stop offset="1" stop-color="#643DCE"/>
</linearGradient>
<clipPath id="clip0_15_484">
<rect width="22.5" height="22.5" fill="white" transform="translate(13.5 13.5)"/>
</clipPath>
</defs>
</svg>
